<svg xmlns="http://www.w3.org/2000/svg" width="256" height="256" viewBox="0 0 256 256"><style type="text/css">.st0{fill:#CB2027;} .st1{fill:#FFFFFF;}</style><path class="st0" d="M255 234.3c0 11.5-9.3 20.7-20.7 20.7h-212.6c-11.4 0-20.7-9.3-20.7-20.7v-212.6c0-11.4 9.3-20.7 20.7-20.7h212.5c11.5 0 20.7 9.3 20.7 20.7v212.6z"/><path class="st1" d="M180.6 144.2c10.2-15.7 13.9-33.4 11.3-53.2-2.3-16-10.5-28.1-24.4-36.4-13.9-8.3-29.9-11.4-47.9-9.4-14.6 1.8-27.5 8-38.8 18.6-11.3 10.6-17.1 23.6-17.4 39-.9 21.8 6.8 34.6 23.1 38.4 2-3.2 3.1-6.2 3.1-8.9 0-2.8-.4-4.9-1.3-6.3-.9-1.5-2-3.3-3.3-5.7-1.3-2.3-2.3-4.6-2.8-7-1.5-9.9.4-19.2 5.4-27.9 5.1-8.7 11.8-15.3 20-19.6 8.3-4.4 17.4-6.2 27.2-5.4 9.9.7 18.3 4.6 25.3 11.5 4.6 4.9 7.5 12.1 8.7 21.6 1.2 9.4.6 18.5-1.7 27-2.3 8.6-6.5 15.8-12.4 21.6-6 5.8-12.7 8-20.3 6.5-5.8-1.2-9.3-3.9-10.5-8.3-1.2-4.4-.9-9.4.9-15 1.7-5.7 3.6-11.3 5.4-17 1.9-5.7 2.6-10.9 2.2-15.7-.4-4.8-3-8.1-7.6-9.8-6.4-2.6-11.9-1.5-16.6 3.3-4.6 4.8-7.3 10.7-7.8 17.6-.6 7 .4 13.4 3.1 19.2-.9 4.9-2.5 11.8-4.8 20.7-2.3 8.9-4.1 15.8-5.2 20.9-1.2 5.1-2.3 12.5-3.5 22.2-1.2 9.7-.9 17.9.9 24.6 7.3-5.2 12.6-12.4 16.1-21.6 3.5-9.2 6.7-20.7 9.6-34.6.6.3 2.6 1.7 6.1 4.1 3.5 2.5 6.2 4.1 8.3 4.8 2 .7 4.6 1.2 7.8 1.5 17.7 1.5 31.6-5.6 41.8-21.3z"/></svg>