<svg xmlns="http://www.w3.org/2000/svg" width="256" height="256" viewBox="0 0 256 256"><style type="text/css">.st0{fill:#44CCF6;} .st1{fill:#FFFFFF;}</style><path class="st0" d="M255 234.3c0 11.5-9.3 20.7-20.7 20.7h-212.6c-11.4 0-20.7-9.3-20.7-20.7v-212.6c0-11.4 9.3-20.7 20.7-20.7h212.5c11.5 0 20.7 9.3 20.7 20.7v212.6z"/><path class="st1" d="M210.4 76.1c-6.2 2.7-12.6 4.4-19.3 5.2 7.2-4.6 12.2-10.9 14.9-18.9-6.7 4-13.9 6.8-21.7 8.4-6.7-7.5-14.9-11.3-24.5-11.3-9.4 0-17.4 3.4-23.9 10.3-6.6 6.8-9.9 14.9-9.9 24.3 0 2.7.3 5.4.8 8-13.9-.8-26.9-4.4-39-10.7-12.1-6.3-22.3-14.8-30.6-25.5-3.2 5.4-4.8 11.1-4.8 17.3 0 12.3 5.1 21.9 15.3 28.5-5.6 0-10.9-1.3-15.7-4v.4c0 8.3 2.6 15.6 7.8 21.9 5.2 6.3 11.7 10.3 19.5 11.9-3 .8-5.9 1.2-8.8 1.2-2.1 0-4.3-.3-6.4-.8 2.1 7 6.1 12.7 11.9 17.1 5.8 4.4 12.4 6.8 19.9 7-12.3 9.6-26.4 14.5-42.2 14.5-2.7 0-5.4-.1-8-.4 15.8 10.5 33.1 15.7 51.9 15.7 15 0 28.7-2.9 41.2-8.8 12.5-5.9 22.6-13.6 30.4-23.1 7.8-9.5 13.8-20 18.1-31.6 4.3-11.5 6.4-23 6.4-34.6v-4.4c6.5-4.7 12.2-10.6 16.7-17.6z"/></svg>