<svg xmlns="http://www.w3.org/2000/svg" width="80" height="110" viewBox="-89 179 80 110" enable-background="new -89 179 80 110"><style type="text/css">.st0{fill:#010101;}</style><path class="st0" d="M-48.3 227.8h-.8c-3.3.2-6.2-.9-8.4-2.9-.2-.2-.4-.3-.5-.5l-.6.6c-2.3 2.1-5.2 3.1-8.7 2.8-2.1-.1-3.6-1.9-3.5-4 .1-2.1 1.9-3.6 4-3.5 1.7.1 2.6-.4 3-.8 1.6-1.4 1.9-4.5 1.9-5.5 0-2.1 1.7-3.7 3.8-3.7 2 0 3.7 1.6 3.8 3.7 0 .9.4 4 1.9 5.4.5.4 1.3 1 3 .9h.5c1.7.1 2.6-.4 3-.8 1.6-1.4 1.9-4.5 1.9-5.5 0-2.1 1.7-3.7 3.8-3.7 2.1 0 3.7 1.6 3.8 3.7 0 .9.4 4 1.9 5.4.5.4 1.3 1 3.1.9 2-.2 3.8 1.4 4 3.5.1 2.1-1.4 3.9-3.5 4-3.4.2-6.4-.8-8.7-2.9-.2-.2-.4-.3-.5-.5l-.6.6c-1.9 1.8-4.6 2.8-7.6 2.8zM-31 254.5v16.3c0 4.1-3.4 7.5-7.5 7.5h-1.8c0 3.1-2.5 5.6-5.6 5.6h-6c-3.1 0-5.6-2.5-5.6-5.6h-1.8c-4.1 0-7.5-3.4-7.5-7.5v-16.3c-11.7-6.4-19.6-18.8-19.6-33 0-20.7 16.8-37.6 37.6-37.6 20.7 0 37.6 16.8 37.6 37.6-.2 14.3-8.2 26.7-19.8 33zm12-32.9c0-16.6-13.5-30-30-30-16.6 0-30 13.5-30 30 0 16.6 13.5 30 30 30 16.6 0 30-13.5 30-30z"/></svg>